<svg width="25px" height="25px" x="0px" y="0px" viewBox="0 0 256 256" enable-background="new 0 0 256 256">
<g><g><path fill="var(--cor-primaria-dark)" d="M214.7,112.9c-17.3,0-31.3-14-31.3-31.3c0-17.3,14-31.3,31.3-31.3c17.3,0,31.3,14,31.3,31.3C246,98.8,232,112.9,214.7,112.9z M214.7,62.6c-10.5,0-19,8.5-19,19c0,10.4,8.5,18.9,19,18.9c10.5,0,19-8.5,19-18.9C233.6,71.1,225.1,62.6,214.7,62.6z M208.1,45.1V26.6c0-3.4,2.8-6.2,6.2-6.2s6.2,2.8,6.2,6.2V45c-1.9-0.3-3.9-0.6-5.9-0.6C212.4,44.4,210.2,44.7,208.1,45.1z M127.8,205.7c-17.3,0-31.3-14-31.3-31.3c0-17.3,14-31.3,31.3-31.3c17.3,0,31.3,14,31.3,31.3C159.1,191.7,145,205.7,127.8,205.7z M127.8,155.5c-10.5,0-19,8.5-19,19s8.5,19,19,19s19-8.5,19-19C146.7,164,138.2,155.5,127.8,155.5z M121.6,137.7V26.6c0-3.4,2.8-6.2,6.2-6.2c3.4,0,6.2,2.8,6.2,6.2v111c-1.9-0.3-3.9-0.6-5.9-0.6C125.9,137.1,123.7,137.3,121.6,137.7z M41.3,143.7c-17.3,0-31.3-14-31.3-31.3c0-17.3,14-31.3,31.3-31.3s31.3,14,31.3,31.3C72.6,129.7,58.6,143.7,41.3,143.7z M41.3,93.5c-10.5,0-19,8.5-19,19c0,10.5,8.5,19,19,19c10.4,0,18.9-8.5,18.9-19C60.2,102,51.7,93.5,41.3,93.5z M35.1,76.5V26.6c0-3.4,2.8-6.2,6.2-6.2c3.4,0,6.2,2.8,6.2,6.2v49.8c-1.9-0.3-3.9-0.6-5.9-0.6C39.4,75.8,37.2,76.1,35.1,76.5z M47.5,150.4v78.9c0,3.4-2.8,6.2-6.2,6.2c-3.4,0-6.2-2.8-6.2-6.2v-79c2.1,0.4,4.3,0.6,6.5,0.6C43.6,151,45.6,150.8,47.5,150.4z M134,211.7v17.7c0,3.4-2.8,6.2-6.2,6.2c-3.4,0-6.2-2.8-6.2-6.2v-17.8c2.1,0.4,4.3,0.7,6.5,0.7C130.1,212.2,132.1,211.9,134,211.7z M220.5,119v110.3c0,3.4-2.8,6.2-6.2,6.2c-3.4,0-6.2-2.8-6.2-6.2V119c2.1,0.4,4.3,0.7,6.5,0.7C216.6,119.6,218.6,119.3,220.5,119z"/></g></g>
</svg>